<svg width="78" height="42" viewBox="0 0 78 42" fill="none" xmlns="http://www.w3.org/2000/svg">
<path d="M19.5785 24.8996C19.7759 25.1234 19.8806 25.426 19.8806 25.8177C19.8806 26.1407 19.8354 26.4383 19.7355 26.7028L15.5158 40.2361C15.4183 40.521 15.2494 40.7575 14.9996 40.9559C14.7499 41.1492 14.4787 41.2484 14.1719 41.2484C13.8484 41.2484 13.5582 41.1492 13.3037 40.9559C13.0492 40.7626 12.8803 40.521 12.8042 40.2361L10.0116 29.1699L7.07166 40.2361C6.9789 40.521 6.79812 40.7575 6.54361 40.9559C6.28909 41.1492 6.00366 41.2484 5.70395 41.2484C5.39711 41.2484 5.11881 41.1492 4.8643 40.9559C4.60978 40.7626 4.42901 40.521 4.33624 40.2361L0.116552 26.7028C0.0404362 26.4358 0 26.1509 0 25.8482C0 24.9937 0.39961 24.5664 1.19883 24.5664C1.558 24.5664 1.86009 24.6783 2.09795 24.9021C2.33581 25.1259 2.53324 25.4795 2.68309 25.9678L5.76104 36.243L8.6701 25.7262C8.76287 25.3803 8.93175 25.1005 9.16961 24.8894C9.40748 24.6783 9.71432 24.5664 10.0973 24.5664C10.4565 24.5664 10.7585 24.6707 10.9964 24.8894C11.2343 25.1056 11.4031 25.3854 11.4959 25.7262L14.0625 36.4516L17.1975 25.9678C17.4639 25.0318 17.9563 24.5664 18.6817 24.5664C19.079 24.5638 19.3811 24.6758 19.5785 24.8996Z" fill="#F26B45"/>
<path d="M25.292 40.2743C24.0931 39.5545 23.1655 38.5524 22.4995 37.268C21.8334 35.9836 21.5028 34.5364 21.5028 32.9112C21.5028 31.2631 21.8334 29.8006 22.4995 28.5239C23.1655 27.242 24.0931 26.2425 25.292 25.5252C26.4908 24.808 27.8466 24.4417 29.3666 24.4417C30.8675 24.4417 32.2114 24.8004 33.4007 25.5252C34.5876 26.245 35.5224 27.2471 36.1932 28.5239C36.8664 29.8006 37.2065 31.2682 37.2065 32.9112C37.2065 34.5339 36.8759 35.9912 36.2099 37.268C35.5439 38.5498 34.6162 39.5494 33.4293 40.2743C32.2423 40.994 30.8841 41.3577 29.3666 41.3577C27.8537 41.3577 26.4908 40.9991 25.292 40.2743ZM31.9807 37.8809C32.7513 37.3926 33.3484 36.7161 33.7765 35.8539C34.2047 34.9917 34.4188 34.0074 34.4188 32.9112C34.4188 31.815 34.2047 30.8282 33.7765 29.9558C33.3484 29.0809 32.7513 28.3992 31.9807 27.9109C31.21 27.4226 30.3394 27.181 29.3737 27.181C28.408 27.181 27.5374 27.4226 26.7667 27.9109C25.996 28.3992 25.3942 29.0809 24.959 29.9558C24.5237 30.8307 24.3048 31.815 24.3048 32.9112C24.3048 34.0074 24.526 34.9866 24.959 35.8539C25.3942 36.7161 25.996 37.3901 26.7667 37.8809C27.5374 38.3718 28.408 38.6109 29.3737 38.6109C30.3394 38.6134 31.21 38.3718 31.9807 37.8809Z" fill="#F26B45"/>
<path d="M51.5519 24.8691C52.1204 25.1921 52.4106 25.599 52.4106 26.0899C52.4106 26.2323 52.3987 26.3315 52.382 26.3925C52.2131 27.0436 51.8326 27.3667 51.2403 27.3667C51.1428 27.3667 51.0024 27.3489 50.8121 27.3056C50.0533 27.1632 49.4325 27.0945 48.9568 27.0945C47.5891 27.0945 46.4878 27.4302 45.6481 28.0991C44.8085 28.7681 44.397 29.6735 44.397 30.8129V39.7122C44.397 40.2005 44.2757 40.5744 44.0378 40.8389C43.7999 41.106 43.4455 41.2357 42.9722 41.2357C42.5155 41.2357 42.1658 41.111 41.9184 40.8567C41.6687 40.6024 41.5474 40.2234 41.5474 39.7173V26.0899C41.5474 25.6016 41.6687 25.2277 41.9184 24.9632C42.1682 24.6961 42.5155 24.5664 42.9722 24.5664C43.9236 24.5664 44.397 25.0751 44.397 26.0899V26.6672C44.9655 25.9551 45.6719 25.3981 46.5068 24.9886C47.3417 24.5791 48.2337 24.3807 49.1851 24.3807C50.1889 24.3782 50.9763 24.5384 51.5519 24.8691Z" fill="#F26B45"/>
<path d="M56.8944 40.521C56.2402 40.0428 55.7288 39.3739 55.3697 38.5066C55.0105 37.6444 54.8297 36.6729 54.8297 35.5945V18.9506C54.8297 18.5055 54.9629 18.1393 55.2293 17.8544C55.4957 17.5696 55.8382 17.4272 56.2545 17.4272C56.6708 17.4272 57.0133 17.5696 57.2797 17.8544C57.5461 18.1393 57.6793 18.5055 57.6793 18.9506V35.5945C57.6793 36.3448 57.8125 36.9628 58.0789 37.4537C58.3453 37.942 58.6878 38.1836 59.1041 38.1836H59.8177C60.2006 38.1836 60.5075 38.3261 60.7453 38.6109C60.9832 38.8958 61.1045 39.262 61.1045 39.7071C61.1045 40.1522 60.9238 40.5185 60.5646 40.8033C60.2054 41.0882 59.7368 41.2306 59.1683 41.2306H59.1112C58.2859 41.2331 57.5485 40.9992 56.8944 40.521Z" fill="#F26B45"/>
<path d="M77.6004 17.8594C77.8668 18.1442 78 18.5232 78 18.9861V32.8856C78 34.4727 77.6527 35.9097 76.9629 37.1992C76.2683 38.4887 75.3288 39.5035 74.1395 40.2487C72.9501 40.9939 71.6252 41.3653 70.1648 41.3653C68.6995 41.3653 67.3651 40.9939 66.1592 40.2487C64.9532 39.506 64.0089 38.4887 63.3262 37.1992C62.6435 35.9097 62.301 34.4727 62.301 32.8856C62.301 31.2986 62.6198 29.8616 63.2572 28.5721C63.8947 27.2826 64.77 26.2729 65.8832 25.5429C66.9964 24.813 68.2357 24.4467 69.6034 24.4467C70.7047 24.4467 71.7299 24.6883 72.6814 25.1767C73.6328 25.665 74.4368 26.3466 75.1028 27.2215V18.9912C75.1028 18.5257 75.2408 18.1493 75.5143 17.8645C75.7878 17.5796 76.1351 17.4372 76.5514 17.4372C76.9867 17.4321 77.334 17.5745 77.6004 17.8594ZM72.7456 37.8681C73.5163 37.3722 74.1181 36.6854 74.5533 35.8105C74.9886 34.9356 75.2075 33.964 75.2075 32.8856C75.2075 31.8072 74.9863 30.8408 74.5533 29.9735C74.1181 29.1113 73.5091 28.4296 72.7456 27.9286C71.9749 27.4326 71.1162 27.1783 70.1672 27.1783C69.2181 27.1783 68.3594 27.425 67.5887 27.9286C66.818 28.4246 66.2091 29.1062 65.7643 29.9735C65.3171 30.8357 65.0912 31.8072 65.0912 32.8856C65.0912 33.964 65.3124 34.9356 65.7643 35.8105C66.2115 36.6854 66.818 37.3722 67.5887 37.8681C68.3594 38.3641 69.2181 38.6184 70.1672 38.6184C71.1115 38.6133 71.9749 38.3641 72.7456 37.8681Z" fill="#F26B45"/>
<path d="M1.07962 19.7615C0.748989 19.5199 0.494475 19.179 0.308943 18.7441C0.12341 18.3092 0.0354004 17.8209 0.0354004 17.2766V8.8682C0.0354004 8.64438 0.104381 8.45871 0.237584 8.31628C0.370787 8.17386 0.544426 8.1001 0.753745 8.1001C0.963064 8.1001 1.1367 8.17386 1.26991 8.31628C1.40311 8.45871 1.47209 8.64438 1.47209 8.8682V17.2766C1.47209 17.6556 1.54107 17.9709 1.67427 18.2176C1.80748 18.4643 1.98112 18.589 2.19043 18.589H2.54961C2.7399 18.589 2.89689 18.6627 3.0182 18.8052C3.13951 18.9476 3.19897 19.1333 3.19897 19.3571C3.19897 19.5809 3.10621 19.7666 2.92543 19.9141C2.7399 20.0565 2.50917 20.1303 2.21898 20.1303H2.19043C1.77893 20.1201 1.40787 20.0031 1.07962 19.7615Z" fill="#F26B45"/>
<path d="M4.8524 10.0259C4.66686 9.82753 4.5741 9.58591 4.5741 9.30614C4.5741 9.02637 4.66686 8.79238 4.8524 8.58636C5.03793 8.38798 5.2639 8.28879 5.52555 8.28879C5.7872 8.28879 6.00603 8.38798 6.1987 8.58636C6.38423 8.78475 6.48175 9.02637 6.48175 9.30614C6.48175 9.58591 6.38899 9.8199 6.1987 10.0259C6.01316 10.2243 5.7872 10.3235 5.52555 10.3235C5.2639 10.3235 5.03793 10.2319 4.8524 10.0259ZM4.99749 19.8993C4.85953 19.7518 4.78817 19.5636 4.78817 19.3347V12.4803C4.78817 12.2437 4.85715 12.053 4.99749 11.9106C5.13783 11.7681 5.31147 11.6944 5.52555 11.6944C5.74676 11.6944 5.92515 11.7681 6.05836 11.9106C6.19156 12.053 6.26054 12.2463 6.26054 12.4803V19.3347C6.26054 19.5585 6.19156 19.7492 6.05836 19.8993C5.92515 20.0468 5.74438 20.1231 5.52555 20.1231C5.30909 20.1206 5.13545 20.0468 4.99749 19.8993Z" fill="#F26B45"/>
<path d="M15.3422 12.0581C15.4111 12.1624 15.4397 12.287 15.4397 12.4167C15.4397 12.5108 15.4159 12.61 15.3707 12.7092L12.3166 19.5941C12.1715 19.9349 11.9526 20.1028 11.6553 20.1028C11.4935 20.1028 11.3603 20.0646 11.2485 19.9858C11.1439 19.912 11.0464 19.7747 10.9584 19.5966L7.90658 12.7092C7.86614 12.6278 7.84949 12.5362 7.84949 12.4294C7.84949 12.1496 7.98269 11.9411 8.25623 11.7961C8.34424 11.7478 8.44177 11.7224 8.55832 11.7224C8.67487 11.7224 8.78429 11.7529 8.88895 11.8215C8.99361 11.8902 9.07448 11.9818 9.13157 12.1064L11.6363 17.8824L14.11 12.1064C14.1671 11.9818 14.248 11.8902 14.3598 11.8215C14.4692 11.7529 14.5858 11.7224 14.7142 11.7224C14.8427 11.7224 14.9521 11.7478 15.0448 11.7961C15.178 11.8673 15.2779 11.9538 15.3422 12.0581Z" fill="#F26B45"/>
<path d="M23.477 16.2674C23.3485 16.3971 23.1939 16.4607 23.0012 16.4607H17.5304C17.6351 17.1804 17.9419 17.7629 18.4462 18.2029C18.9504 18.6429 19.5641 18.8667 20.2944 18.8667C20.5846 18.8667 20.8795 18.8107 21.1935 18.6988C21.5075 18.5869 21.762 18.4445 21.9642 18.2843C22.0974 18.1723 22.2544 18.1164 22.4399 18.1164C22.6207 18.1164 22.7634 18.1647 22.8752 18.2715C23.0488 18.4267 23.1368 18.5996 23.1368 18.798C23.1368 18.9837 23.0607 19.1388 22.9061 19.2635C22.5826 19.5432 22.1759 19.7645 21.6882 19.94C21.2006 20.1155 20.7368 20.1994 20.2967 20.1994C19.5094 20.1994 18.8006 20.0188 18.1821 19.6551C17.5566 19.2889 17.0689 18.7878 16.7217 18.1367C16.3744 17.4933 16.1936 16.7557 16.1936 15.9367C16.1936 15.1127 16.3625 14.3802 16.6931 13.724C17.0237 13.0729 17.4876 12.5642 18.0775 12.2005C18.6698 11.8343 19.3358 11.6562 20.0874 11.6562C20.8296 11.6562 21.467 11.8292 21.9998 12.1827C22.5327 12.5362 22.9513 13.0195 23.2391 13.6451C23.5293 14.2708 23.6744 14.9906 23.6744 15.8019C23.6696 15.9749 23.6054 16.1376 23.477 16.2674ZM18.3724 13.5765C17.9371 13.986 17.6588 14.5379 17.5447 15.2246H22.3424C22.2544 14.5379 22.0189 13.986 21.624 13.5765C21.2292 13.167 20.713 12.9635 20.0827 12.9635C19.381 12.9635 18.8125 13.1695 18.3724 13.5765Z" fill="#F26B45"/>
<path d="M33.5506 18.8005C33.6719 18.943 33.7313 19.1286 33.7313 19.3525C33.7313 19.5763 33.6505 19.7619 33.4935 19.9095C33.3365 20.057 33.1343 20.1256 32.8798 20.1256H32.6181C32.1495 20.1256 31.719 19.9959 31.3313 19.7365C30.9436 19.4771 30.6367 19.1159 30.4155 18.6632C30.1943 18.2105 30.0849 17.7018 30.0849 17.1397V13.3348H29.4236C29.2215 13.3348 29.0597 13.2738 28.936 13.1492C28.8076 13.0245 28.7505 12.8694 28.7505 12.6837C28.7505 12.4803 28.8147 12.3124 28.936 12.1878C29.0573 12.0631 29.2262 12.0021 29.4236 12.0021H30.0849V9.78427C30.0849 9.56046 30.1539 9.37479 30.2871 9.23236C30.4203 9.08993 30.5939 9.01617 30.8032 9.01617C31.0126 9.01617 31.1862 9.08993 31.3194 9.23236C31.4526 9.37479 31.5216 9.56046 31.5216 9.78427V12.0021H32.7442C32.9464 12.0021 33.1081 12.0631 33.2318 12.1878C33.3531 12.3124 33.4174 12.4726 33.4174 12.6837C33.4174 12.8694 33.3531 13.0245 33.2318 13.1492C33.1034 13.2738 32.9416 13.3348 32.7442 13.3348H31.5216V17.1397C31.5216 17.5492 31.6263 17.8951 31.8403 18.1749C32.0496 18.4546 32.3089 18.5894 32.6158 18.5894H33.1034C33.2842 18.5844 33.434 18.653 33.5506 18.8005Z" fill="#F26B45"/>
<path d="M41.2359 12.0835C41.764 12.3938 42.1755 12.8389 42.4752 13.4289C42.7701 14.0164 42.9224 14.7311 42.9224 15.5603V19.3474C42.9224 19.5712 42.8534 19.7619 42.7131 19.912C42.5751 20.0595 42.3991 20.1358 42.185 20.1358C41.9709 20.1358 41.7973 20.062 41.6569 19.912C41.519 19.7645 41.4476 19.5763 41.4476 19.3474V15.5603C41.4476 14.7311 41.2383 14.0978 40.8221 13.6756C40.4058 13.2483 39.8492 13.0372 39.1594 13.0372C38.7526 13.0372 38.3887 13.1237 38.0581 13.2967C37.7275 13.4696 37.4658 13.7061 37.2826 14.0037C37.0971 14.3013 36.9996 14.637 36.9996 15.0007V19.3448C36.9996 19.5686 36.9306 19.7594 36.7974 19.9094C36.6642 20.057 36.4834 20.1333 36.2646 20.1333C36.0505 20.1333 35.8769 20.0595 35.7365 19.9094C35.5986 19.7619 35.5272 19.5737 35.5272 19.3448V8.87373C35.5272 8.6372 35.5962 8.44645 35.7365 8.30402C35.8769 8.16159 36.0505 8.08783 36.2646 8.08783C36.4858 8.08783 36.6642 8.16159 36.7974 8.30402C36.9306 8.44645 36.9996 8.63974 36.9996 8.87373V12.6481C37.3064 12.32 37.6727 12.0657 38.0938 11.8851C38.5148 11.7045 38.9691 11.618 39.4496 11.618C40.1108 11.6257 40.7079 11.7732 41.2359 12.0835Z" fill="#F26B45"/>
<path d="M52.2514 16.2674C52.1229 16.3971 51.9683 16.4607 51.7757 16.4607H46.3048C46.4095 17.1804 46.7163 17.7629 47.2206 18.2029C47.7248 18.6429 48.3385 18.8667 49.0688 18.8667C49.359 18.8667 49.6539 18.8107 49.9679 18.6988C50.2819 18.5869 50.5364 18.4445 50.7386 18.2843C50.8718 18.1723 51.0288 18.1164 51.2143 18.1164C51.3951 18.1164 51.5378 18.1647 51.6496 18.2715C51.8232 18.4267 51.9112 18.5996 51.9112 18.798C51.9112 18.9837 51.8351 19.1388 51.6805 19.2635C51.357 19.5432 50.9503 19.7645 50.4626 19.94C49.975 20.1155 49.5112 20.1994 49.0712 20.1994C48.2838 20.1994 47.575 20.0188 46.9565 19.6551C46.331 19.2889 45.8433 18.7878 45.4961 18.1367C45.1488 17.4933 44.968 16.7557 44.968 15.9367C44.968 15.1127 45.1369 14.3802 45.4675 13.724C45.7982 13.0729 46.262 12.5642 46.8519 12.2005C47.4442 11.8343 48.1102 11.6562 48.8618 11.6562C49.604 11.6562 50.2414 11.8292 50.7742 12.1827C51.3071 12.5362 51.7257 13.0195 52.0135 13.6451C52.3037 14.2708 52.4488 14.9906 52.4488 15.8019C52.4369 15.9749 52.3798 16.1376 52.2514 16.2674ZM47.1468 13.5765C46.7115 13.986 46.4333 14.5379 46.3191 15.2246H51.1168C51.0288 14.5379 50.7933 13.986 50.3984 13.5765C50.0036 13.167 49.4874 12.9635 48.8571 12.9635C48.1554 12.9635 47.5821 13.1695 47.1468 13.5765Z" fill="#F26B45"/>
<path d="M68.8613 20.3444L64.3705 15.2881L69.1158 6.07349C69.249 5.80644 68.9993 5.63857 68.8328 5.86239L62.4224 13.8613L56.4187 11.1094C55.6433 10.7558 55.6076 9.60878 56.3212 9.18912L71.661 0.134711C72.3746 -0.292576 73.2499 0.358528 73.1214 1.21819L70.5549 19.7518C70.4384 20.6343 69.4179 20.9751 68.8613 20.3444Z" fill="#F26B45"/>
</svg>
